<?xml version="1.0" standalone="no"?><!DOCTYPE svg PUBLIC "-//W3C//DTD SVG 1.1//EN" "http://www.w3.org/Graphics/SVG/1.1/DTD/svg11.dtd"><svg t="1534931287613" class="icon" style="" viewBox="0 0 1024 1024" version="1.1" xmlns="http://www.w3.org/2000/svg" p-id="93487" xmlns:xlink="http://www.w3.org/1999/xlink" width="128" height="128"><defs><style type="text/css"></style></defs><path d="M382.862222 227.555556A98.986667 98.986667 0 0 0 284.444444 325.973333V341.333333h682.666667V227.555556zM170.666667 616.675556V967.111111h796.444444V512H275.342222A105.244444 105.244444 0 0 0 170.666667 616.675556z m281.031111 207.075555l258.275555-258.275555v-28.444445h51.768889v79.644445a28.444444 28.444444 0 0 1-8.533333 19.911111l-284.444445 281.6a28.444444 28.444444 0 0 1-39.822222 0l-158.151111-160.426667a29.013333 29.013333 0 0 1-8.533333-18.204444v-79.644445h48.924444v22.755556z" fill="#BAE1E0" p-id="93488"></path><path d="M967.111111 113.777778h-170.666667V28.444444a28.444444 28.444444 0 0 0-56.888888 0V113.777778H284.444444V28.444444a28.444444 28.444444 0 0 0-56.888888 0V113.777778H56.888889a56.888889 56.888889 0 0 0-56.888889 56.888889v312.888889a28.444444 28.444444 0 0 0 28.444444 28.444444 28.444444 28.444444 0 0 0 28.444445-28.444444V398.222222h910.222222v541.013334a28.444444 28.444444 0 0 1-27.306667 27.875555H85.333333a28.444444 28.444444 0 0 1-28.444444-27.875555v-113.777778A28.444444 28.444444 0 0 0 28.444444 796.444444a28.444444 28.444444 0 0 0-28.444444 28.444445V967.111111a56.888889 56.888889 0 0 0 56.888889 56.888889h910.222222a56.888889 56.888889 0 0 0 56.888889-56.888889V170.666667a56.888889 56.888889 0 0 0-56.888889-56.888889zM56.888889 341.333333V199.111111a28.444444 28.444444 0 0 1 28.444444-28.444444H227.555556v85.333333a28.444444 28.444444 0 0 0 56.888888 0V170.666667h455.111112v85.333333a28.444444 28.444444 0 0 0 56.888888 0V170.666667h142.222223a27.875556 27.875556 0 0 1 28.444444 27.875555V341.333333z" fill="#59BDB8" p-id="93489"></path><path d="M28.444444 654.222222m-28.444444 0a28.444444 28.444444 0 1 0 56.888889 0 28.444444 28.444444 0 1 0-56.888889 0Z" fill="#59BDB8" p-id="93490"></path><path d="M471.608889 838.542222l284.444444-284.444444a27.875556 27.875556 0 1 0-39.822222-39.822222l-261.688889 261.12-143.928889-137.671112a27.875556 27.875556 0 1 0-39.822222 39.822223l160.995556 160.995555a27.306667 27.306667 0 0 0 39.822222 0z" fill="#59BDB8" p-id="93491"></path></svg>