<?xml version="1.0" standalone="no"?><!DOCTYPE svg PUBLIC "-//W3C//DTD SVG 1.1//EN" "http://www.w3.org/Graphics/SVG/1.1/DTD/svg11.dtd"><svg t="1534929503630" class="icon" style="" viewBox="0 0 1024 1024" version="1.1" xmlns="http://www.w3.org/2000/svg" p-id="22551" xmlns:xlink="http://www.w3.org/1999/xlink" width="128" height="128"><defs><style type="text/css"></style></defs><path d="M578.56 609.28m-281.6 0a281.6 281.6 0 1 0 563.2 0 281.6 281.6 0 1 0-563.2 0Z" fill="#FED847" p-id="22552"></path><path d="M434.62656 952.32L20.6848 538.79808 588.91264 63.20128l273.55136 48.22016 21.42208 121.33376-40.96 7.168-16.39424-92.7232-225.82272-39.8336L82.14528 541.51168 431.9232 890.88l440.7296-525.49632 31.8464 26.624L434.62656 952.32zM683.008 373.76a83.0464 83.0464 0 0 1 0.1024-166.05184 83.02592 83.02592 0 0 1 58.64448 141.74208A82.5856 82.5856 0 0 1 683.008 373.76z m0-124.4672a41.50272 41.50272 0 0 0-29.37856 70.85056 42.6496 42.6496 0 0 0 58.74688 0 41.49248 41.49248 0 0 0-29.36832-70.89152v0.04096z m132.78208 82.944a533.16608 533.16608 0 0 1-138.24-21.44256l10.97728-40.0384c111.53408 30.55616 191.80544 25.81504 232.13056-13.66016 50.78016-49.68448 28.23168-142.00832 27.99616-142.92992l40.25344-10.24c1.20832 4.70016 28.7744 116.08064-38.99392 182.65088-31.05792 30.38208-75.93984 45.6192-134.18496 45.6192l0.06144 0.04096z m-573.44 281.31328l-29.35808-29.3888L462.65344 334.7456l29.37856 29.3376-249.68192 249.46688z m73.44128 73.3696l-29.36832-29.34784L477.35808 466.8416l29.36832 29.3376-190.93504 190.74048z" fill="" p-id="22553"></path></svg>