<?xml version="1.0" standalone="no"?><!DOCTYPE svg PUBLIC "-//W3C//DTD SVG 1.1//EN" "http://www.w3.org/Graphics/SVG/1.1/DTD/svg11.dtd"><svg t="1534582375017" class="icon" style="" viewBox="0 0 1024 1024" version="1.1" xmlns="http://www.w3.org/2000/svg" p-id="17224" xmlns:xlink="http://www.w3.org/1999/xlink" width="128" height="128"><defs><style type="text/css"></style></defs><path d="M908.8 371.2l0 230.4c64 0 115.2-51.2 115.2-115.2C1024 422.4 972.8 371.2 908.8 371.2z" p-id="17225" fill="#ffffff"></path><path d="M0 480c0 64 51.2 115.2 115.2 115.2L115.2 364.8C51.2 364.8 0 416 0 480z" p-id="17226" fill="#ffffff"></path><path d="M915.2 646.4c-12.8-6.4-25.6 0-32 12.8-57.6 115.2-160 198.4-281.6 230.4-12.8-19.2-38.4-38.4-70.4-38.4-44.8 0-76.8 25.6-76.8 57.6 0 32 32 57.6 76.8 57.6 32 0 57.6-12.8 70.4-32 147.2-25.6 268.8-121.6 332.8-262.4C934.4 665.6 928 652.8 915.2 646.4z" p-id="17227" fill="#ffffff"></path><path d="M684.8 115.2c70.4 32 134.4 83.2 172.8 153.6 6.4 12.8 19.2 32 25.6 44.8 6.4 12.8 19.2 19.2 32 12.8 12.8-6.4 19.2-19.2 12.8-32C921.6 275.2 908.8 256 896 243.2c-44.8-76.8-115.2-134.4-198.4-172.8C473.6-38.4 198.4 64 89.6 294.4 83.2 307.2 89.6 320 102.4 326.4c6.4 0 6.4 0 12.8 0 12.8 0 19.2-6.4 25.6-12.8C230.4 108.8 480 19.2 684.8 115.2z" p-id="17228" fill="#ffffff"></path><path d="M300.8 505.6c38.4-32 57.6-64 57.6-96 0-25.6-6.4-38.4-19.2-51.2C313.6 339.2 294.4 332.8 268.8 332.8c-25.6 0-51.2 6.4-76.8 19.2l0 44.8c19.2-19.2 44.8-25.6 64-25.6 25.6 0 38.4 12.8 38.4 38.4 0 12.8 0 19.2-6.4 32C281.6 454.4 275.2 467.2 256 486.4L185.6 556.8l0 44.8 166.4 0L352 550.4 243.2 550.4l0 0L300.8 505.6z" p-id="17229" fill="#ffffff"></path><path d="M492.8 595.2l51.2 0L544 544 576 544 576 499.2 544 499.2 544 339.2 486.4 339.2 377.6 505.6l0 32 115.2 0L492.8 595.2zM422.4 499.2l57.6-89.6c0-6.4 6.4-6.4 6.4-12.8 0-6.4 0-6.4 6.4-6.4l0 0c0 6.4 0 19.2 0 25.6l0 83.2L422.4 499.2z" p-id="17230" fill="#ffffff"></path><path d="M742.4 435.2 742.4 339.2c0-44.8-19.2-64-51.2-64-19.2 0-38.4 6.4-51.2 25.6l0 0L640 198.4 588.8 198.4l0 230.4L640 428.8 640 345.6c0-12.8 0-19.2 6.4-25.6 6.4-6.4 12.8-12.8 19.2-12.8 19.2 0 25.6 12.8 25.6 38.4l0 89.6L742.4 435.2z" p-id="17231" fill="#ffffff"></path></svg>