<?xml version="1.0" standalone="no"?><!DOCTYPE svg PUBLIC "-//W3C//DTD SVG 1.1//EN" "http://www.w3.org/Graphics/SVG/1.1/DTD/svg11.dtd"><svg t="1534657508865" class="icon" style="" viewBox="0 0 1024 1024" version="1.1" xmlns="http://www.w3.org/2000/svg" p-id="4138" xmlns:xlink="http://www.w3.org/1999/xlink" width="200" height="200"><defs><style type="text/css"></style></defs><path d="M735.540792 901.800088c39.609034-50.718024 79.504593-134.5471 81.399752-208.162578 1.564632-60.587792-7.925491-101.121893-15.76707-134.539936-9.870792-42.159108-17.464732-74.424911-2.238989-120.841988 10.799952-33.014862 28.386457-87.982668 38.635871-145.5292 9.785858-55.162234 12.86805-112.396658-3.881392-152.55316C803.874997 68.74148 721.535852 87.277611 643.126194 104.919375c-42.385258 9.544358-83.813727 18.861542-120.210609 16.46394-33.069097-2.174521-63.229964-12.274533-93.726474-22.486085-63.556398-21.275517-128.851389-43.14762-215.404501 30.418739-58.247496 49.547364-30.197706 132.983491-4.092193 210.696279 7.974609 23.643442 15.77628 46.825375 21.173186 68.063029 10.206436 40.127849 5.864556 69.566263 0.546445 105.770764-5.902418 39.933421-13.159691 89.176864 0.466627 173.777511 8.64999 53.992597 33.446696 121.190934 60.863061 175.12111 24.42627 48.085062 47.369773 83.998945 56.730959 83.998944 9.029636 0 11.429284-7.773018 11.429284-16.904984 0-12.393237-2.907207-27.156446-5.312996-39.238598-0.12382-0.633425-0.213871-1.190103-1.729384-9.399049-6.031355-33.162218-8.814742-65.423928-8.814742-96.258128 0-81.757909 19.021178-156.189983 47.70644-212.142207 30.538466-59.559372 73.137594-99.315761 117.548995-107.414191 5.991446-1.095959 11.725019-1.655706 17.087133-1.655706 50.820354 0 94.308734 30.50572 126.783291 76.916657 33.620658 47.986825 55.682072 113.796538 61.251917 178.868449 4.892417 56.962226-3.418859 112.375169-10.08364 156.984067-4.513795 30.110725-8.097406 54.033529-8.395187 62.913763 2.199081-1.30062 5.01726-3.27355 8.313323-5.849207 9.325371-7.265459 19.64744-18.156486 30.28264-31.761314v-0.00307h0.001023z m131.807715-206.979638c-2.189871 85.082624-47.285862 180.693001-92.076908 238.022593-13.113643 16.805724-26.443203 30.682752-38.972538 40.465539-15.480545 12.092385-30.918112 18.692697-45.176832 18.321238-9.186201-0.234337-17.548643-3.090379-24.837639-8.795299-25.051509-19.560459-19.021178-59.721054-10.964704-113.64816 6.277971-41.997426 14.12876-94.165471 9.695807-145.511804-4.892417-56.730959-23.658792-113.458848-52.172139-154.158724-23.280169-33.291154-52.813751-55.166327-85.45306-55.166327-3.039213-0.005117-5.781668 0.22308-8.187456 0.667195-28.548139 5.205548-58.163585 35.101379-81.571667 80.720278-25.26231 49.222976-41.968773 115.514666-41.968774 189.206891 0 28.598281 2.44672 57.930271 7.842603 87.356406 0.469697 2.627845 0.593516 2.863205 1.730408 8.613151 2.825343 14.343654 6.285134 31.865691 6.285134 48.926218 0 36.453164-12.863957 67.522725-62.044978 67.522725-29.940856-0.004093-69.261318-47.838446-101.818763-111.88603-29.35655-57.826918-56.100604-130.58896-65.632682-189.94367-14.84405-92.522045-7.00247-145.789119-0.634448-189.004277 4.514818-30.650006 8.189503-55.574625 0.469696-85.997458-5.398953-21.109741-12.612224-42.590942-19.993316-64.503977-31.381668-93.329432-65.085214-193.516025 19.317936-265.266019C289.287061-1.15838 368.327074 25.302218 445.221218 51.050598c27.291522 9.131966 54.239213 18.164672 80.859447 19.915545 29.484463 1.940185 67.270992-6.566543 105.990774-15.282024 98.575912-22.185234 202.12099-45.481776 248.270984 65.109773 21.170116 50.733373 18.262909 117.58174 7.042379 180.631603-10.750833 60.656354-29.145749 118.026878-40.408234 152.449806-10.799952 32.993373-4.643754 59.342431 3.420906 93.74694 8.476028 36.049982 18.723396 79.773722 16.952056 147.202302v-0.004093z" fill="#6DBCAB" p-id="4139"></path><path d="M304.555782 790.999784c-1.309829-240.408938 89.540137-420.959699 224.391158-420.959699 130.291178 0 217.89727 173.846073 227.84788 410.825918 52.772818-166.309438-54.323124-272.36468-25.647072-374.29089 46.950218-166.770948 36.743782-260.920046-84.859544-211.503666-101.35316 41.190039-122.103721 24.343382-220.848479-8.723667-92.620282-39.234505-188.287964 6.286157-131.305272 148.079274 68.285086 169.839837-68.284063 263.661478 10.421329 456.57273z" fill="#6DBCAB" p-id="4140"></path></svg>