<?xml version="1.0" standalone="no"?><!DOCTYPE svg PUBLIC "-//W3C//DTD SVG 1.1//EN" "http://www.w3.org/Graphics/SVG/1.1/DTD/svg11.dtd"><svg t="1534659250453" class="icon" style="" viewBox="0 0 1024 1024" version="1.1" xmlns="http://www.w3.org/2000/svg" p-id="4737" xmlns:xlink="http://www.w3.org/1999/xlink" width="200" height="200"><defs><style type="text/css"></style></defs><path d="M621.505824 565.511644c75.562825 101.053332 153.046392 202.547708 192.571515 282.132118l-100.683919 167.822905c-39.141384-91.948995-109.272511-202.566127-181.29368-312.760635 29.895831-45.629132 60.059767-91.166167 89.406084-137.190295v-0.004093zM443.838734 293.736387h-0.002047c-11.838606-27.252636-22.104393-53.929152-14.120574-83.80861 9.675341-36.375393 42.876444-63.164472 82.286957-63.160379 39.802438 0 73.200016 27.237287 82.561202 64.089539 4.879114 19.117368 2.789527 34.381996-2.873438 52.416709-48.144414 153.452644-298.734205 417.211336-381.768173 584.37114l100.693128 167.822904C401.867914 801.281944 660.962386 485.82388 721.414078 310.300612c13.374585-38.899884 17.930335-77.498917 10.379374-118.809706C712.71804 87.42599 621.582572 8.53231 512.00307 8.53231c-123.351129 0-223.411856 100.047424-223.413903 223.424136 0 21.414686 3.541656 44.110549 9.676364 64.788455 16.677811 56.391222 56.879338 129.268897 106.631363 209.495943 29.971555-40.313067 60.027022-81.558364 87.279658-123.734868-19.823448-31.590423-36.460327-61.48523-48.337818-88.769589z" fill="#CD4545" p-id="4738"></path></svg>