<?xml version="1.0" standalone="no"?><!DOCTYPE svg PUBLIC "-//W3C//DTD SVG 1.1//EN" "http://www.w3.org/Graphics/SVG/1.1/DTD/svg11.dtd"><svg t="1534923550415" class="icon" style="" viewBox="0 0 1025 1024" version="1.1" xmlns="http://www.w3.org/2000/svg" p-id="7834" xmlns:xlink="http://www.w3.org/1999/xlink" width="128.125" height="128"><defs><style type="text/css"></style></defs><path d="M644.602285 321.098188 508.922771 173.537519 373.243257 321.098188Z" p-id="7835" fill="#ffffff"></path><path d="M508.922771 748.64477 641.726656 386.12423 376.058507 386.12423Z" p-id="7836" fill="#ffffff"></path><path d="M950.724691 342.858815l-129.92621-264.857652c0 0-19.2575-16.507744-30.636187-16.75949-11.255885-0.373525-546.847294 0.251745-564.228984 0-17.444114-0.373525-30.134743 19.196098-30.134743 19.196098l-128.929462 262.916347c0 0-10.87929 38.395267 0.938417 57.152346 10.064699 16.319447 332.69792 432.798441 418.605527 543.594048 13.132718 17.003048 27.63878 17.881087 39.894482 2.188957 82.655383-106.230419 406.160503-521.648194 423.292494-545.407433C969.357944 373.616781 950.724691 342.858815 950.724691 342.858815zM869.442651 386.12423l-159.56258 0-170.94536 466.563025c-4.627613 12.632298-16.629523 21.007437-30.01194 21.007437-13.504196 0-25.510201-8.376163-30.138837-21.007437l-170.878842-466.563025-159.501178 0c-18.069384 0-32.763743-14.506061-32.763743-32.509951 0-17.886204 14.694359-32.516091 32.763743-32.516091l135.679514 0-67.403296-183.950159c-6.064403-16.569145 2.50415-34.951676 19.068179-41.01608 16.571192-6.192323 34.9527 2.374184 41.081575 19.008824l56.647832 154.685268 151.810663-165.315883c12.125737-13.19412 35.014101-13.19412 47.145978 0l151.934489 165.315883 56.645785-154.685268c6.128875-16.568122 24.635232-25.010803 41.018127-19.008824 16.63464 6.064403 25.136676 24.446934 19.134697 41.01608l-67.405343 183.950159 135.680537 0c18.009006 0 32.763743 14.630911 32.763743 32.516091C902.206394 371.618169 887.451657 386.12423 869.442651 386.12423z" p-id="7837" fill="#ffffff"></path></svg>