<?xml version="1.0" standalone="no"?><!DOCTYPE svg PUBLIC "-//W3C//DTD SVG 1.1//EN" "http://www.w3.org/Graphics/SVG/1.1/DTD/svg11.dtd"><svg t="1534581720912" class="icon" style="" viewBox="0 0 1024 1024" version="1.1" xmlns="http://www.w3.org/2000/svg" p-id="9210" xmlns:xlink="http://www.w3.org/1999/xlink" width="128" height="128"><defs><style type="text/css"></style></defs><path d="M92.7 541h840.5c14.8 0 26.9-12 26.9-26.9 0-14.8-12-26.9-26.9-26.9H92.7c-14.8 0-26.9 12-26.9 26.9 0.1 14.9 12.1 26.9 26.9 26.9zM93.4 369.9c14.8 0 26.9-12 26.9-26.9V229.9c0-59.2 48.2-107.4 107.4-107.4h106.4c14.8 0 26.9-12 26.9-26.9s-12-26.9-26.9-26.9H227.7c-88.8 0-161.1 72.3-161.1 161.1V343c0 14.9 12 26.9 26.8 26.9zM930.5 672c-14.8 0-26.9 12-26.9 26.9v99.6c0 59.2-48.2 107.4-107.4 107.4H689.9v0.1c-10 0-19.7 5.6-24.3 15.3-6.4 13.4-0.7 29.4 12.7 35.8 3.7 1.8 7.6 2.5 11.5 2.5v0.1h106.4c88.8 0 161.1-72.3 161.1-161.1V699c0.1-15-11.9-27-26.8-27zM689.9 122.5h106.4c59.2 0 107.4 48.2 107.4 107.4v113.2c0 14.8 12 26.9 26.9 26.9s26.9-12 26.9-26.9V229.9c0-88.8-72.3-161.1-161.1-161.1H689.9c-14.8 0-26.9 12-26.9 26.9s12 26.8 26.9 26.8zM345.6 908.5c-3.7-1.8-7.6-2.5-11.5-2.5v-0.1H227.7c-59.2 0-107.4-48.2-107.4-107.4v-99.6c0-14.8-12-26.9-26.9-26.9s-26.9 12-26.9 26.9v99.6c0 88.8 72.3 161.1 161.1 161.1H334v-0.1c10 0 19.7-5.6 24.3-15.3 6.4-13.4 0.7-29.4-12.7-35.7z" fill="#ffffff" p-id="9211"></path></svg>