<?xml version="1.0" standalone="no"?><!DOCTYPE svg PUBLIC "-//W3C//DTD SVG 1.1//EN" "http://www.w3.org/Graphics/SVG/1.1/DTD/svg11.dtd"><svg t="1535882299345" class="icon" style="" viewBox="0 0 1024 1024" version="1.1" xmlns="http://www.w3.org/2000/svg" p-id="4311" data-spm-anchor-id="a313x.7781069.0.i9" xmlns:xlink="http://www.w3.org/1999/xlink" width="200" height="200"><defs><style type="text/css"></style></defs><path d="M927.702136 519.344349l29.497067 29.229089 29.569687-29.229089 14.784843-14.594599c24.441274-24.210117 24.441274-63.474079 0-87.680105-24.482187-24.210117-64.155277-24.210117-88.631326 0l-14.785867 14.615055-29.497067 29.224997 29.497067 29.229089 29.565596 29.205563m14.749045-73.05073c8.173344-8.066971 21.397366-8.066971 29.532865 0a20.487057 20.487057 0 0 1 0 29.230111l-14.784843 14.614033-29.497067-29.229089 14.749045-14.615055M458.575114 866.360122l-67.880382 154.123428 155.767097-67.116337 0.810072 0.795753 380.430235-376.364531-29.565596-29.224997-380.397505 376.360439-29.532865-29.224997 380.434326-376.364531-29.569687-29.210677-380.394436 376.364531-0.101259-0.138081m0 0" fill="#FF4F37" p-id="4312"></path><path d="M837.842404 383.772806c-11.862651 0-21.479192-9.616541-21.479192-21.479191V186.749297c0-26.400995-9.787352-51.088768-27.560871-69.514847-17.757154-18.409713-41.70543-28.547891-67.43341-28.547891H662.267401c-11.862651 0-21.479192-9.616541-21.479191-21.479192s9.616541-21.479192 21.479191-21.479191h59.10153c37.494486 0 72.423743 14.803254 98.351172 41.682928 25.537736 26.474638 39.601492 61.753698 39.601493 99.338193v175.544318c0 11.862651-9.616541 21.479192-21.479192 21.479191zM498.42106 88.686559h-133.406236c-11.862651 0-21.479192-9.616541-21.479192-21.479192s9.616541-21.479192 21.479192-21.479191H498.422082c11.862651 0 21.479192 9.616541 21.479192 21.479191s-9.617564 21.479192-21.480214 21.479192zM276.506235 975.100063h-131.370826c-77.758765 0-141.021121-63.262356-141.021121-141.02112V186.749297c0-77.758765 63.262356-141.021121 141.021121-141.021121h45.938876c11.862651 0 21.479192 9.616541 21.479192 21.479191s-9.616541 21.479192-21.479192 21.479192h-45.938876c-54.07233 0-98.062738 43.990407-98.062738 98.062738v647.329646c0 54.071308 43.990407 98.062738 98.062738 98.062737h131.370826c11.862651 0 21.479192 9.616541 21.479192 21.479192s-9.615518 21.479192-21.479192 21.479191z" fill="#FF4F37" p-id="4313"></path><path d="M275.594904 133.369414c-19.135914 0-34.792199-15.656285-34.792199-34.792199V34.792199c0-19.135914 15.656285-34.792199 34.792199-34.792199 19.135914 0 34.792199 15.656285 34.792199 34.792199v63.785016c0 19.135914-15.656285 34.792199-34.792199 34.792199zM580.379518 133.369414c-19.135914 0-34.792199-15.656285-34.792199-34.792199V34.792199c0-19.135914 15.656285-34.792199 34.792199-34.792199 19.135914 0 34.792199 15.656285 34.792199 34.792199v63.785016c0 19.135914-15.656285 34.792199-34.792199 34.792199zM650.617497 357.050647H212.818387c-11.959818 0-21.745124-9.785306-21.745125-21.745125 0-11.959818 9.785306-21.745124 21.745125-21.745124H650.617497c11.959818 0 21.745124 9.785306 21.745124 21.745124-0.001023 11.959818-9.785306 21.745124-21.745124 21.745125zM490.692642 553.647641H212.818387c-11.959818 0-21.745124-9.785306-21.745125-21.745124 0-11.959818 9.785306-21.745124 21.745125-21.745125h277.873232c11.959818 0 21.745124 9.785306 21.745125 21.745125 0 11.959818-9.785306 21.745124-21.744102 21.745124z" fill="#FF4F37" p-id="4314"></path></svg>