<?xml version="1.0" standalone="no"?><!DOCTYPE svg PUBLIC "-//W3C//DTD SVG 1.1//EN" "http://www.w3.org/Graphics/SVG/1.1/DTD/svg11.dtd"><svg t="1534930419748" class="icon" style="" viewBox="0 0 1024 1024" version="1.1" xmlns="http://www.w3.org/2000/svg" p-id="66030" xmlns:xlink="http://www.w3.org/1999/xlink" width="128" height="128"><defs><style type="text/css"></style></defs><path d="M719.21495 702.586589h-57.508544l28.754272 43.796543z" fill="#70CCF7" p-id="66031"></path><path d="M905.247926 301.766364l-105.193564-5.218747v378.614969c0 8.902568-4.502448 16.474868-11.051464 21.488958l-58.838813 89.434995c-9.618867 14.632957-24.047167 22.921555-39.703407 22.921555-15.656241 0-30.186869-8.390926-39.805736-22.921555l-58.838813-89.434995c-6.549016-5.01409-11.051464-12.58639-11.051464-21.488958V287.54272H331.697412c-72.960128 0-132.617568 59.65744-132.617568 132.617568v474.905966c7.265314 1.637254 14.837614 2.558209 22.61457 2.558209h578.973918c57.917857 0 105.091236-47.173379 105.091236-105.091236V310.15729c0.102328-2.865194-0.306985-5.62806-0.511642-8.390926z" fill="#70CCF7" p-id="66032"></path><path d="M800.770661 952.574798H221.694414c-88.309383 0-160.143899-71.834516-160.143899-160.1439V310.15729c0-88.207055 71.834516-160.041571 160.143899-160.041571h290.407914c15.144599 0 27.526332 12.279404 27.526332 27.526332 0 15.246927-12.279404 27.526332-27.526332 27.526331H221.694414c-57.917857 0-105.091236 47.173379-105.091236 105.091236v482.375937c0 57.917857 47.173379 105.091236 105.091236 105.091236h578.973918c57.917857 0 105.091236-47.173379 105.091236-105.091236V310.15729c0-37.247527-20.261017-72.141501-52.801439-90.969921-13.098031-7.674628-17.60048-24.45648-10.02818-37.554512 7.674628-13.098031 24.45648-17.60048 37.554512-10.02818 49.424603 28.651944 80.225442 81.760368 80.225442 138.654941v482.375937c0.102328 88.207055-71.732187 159.939243-159.939242 159.939243z" fill="#4E5A6C" p-id="66033"></path><path d="M481.199161 460.579994H268.458479c-15.144599 0-27.526332-12.279404-27.526332-27.526332 0-15.246927 12.279404-27.526332 27.526332-27.526331h212.740682c15.144599 0 27.526332 12.279404 27.526331 27.526331 0 15.246927-12.381733 27.526332-27.526331 27.526332zM481.199161 593.606875H268.458479c-15.144599 0-27.526332-12.279404-27.526332-27.526331s12.279404-27.526332 27.526332-27.526332h212.740682c15.144599 0 27.526332 12.279404 27.526331 27.526332s-12.381733 27.526332-27.526331 27.526331zM401.383032 726.531428h-133.026881c-15.144599 0-27.526332-12.279404-27.526332-27.526332 0-15.246927 12.279404-27.526332 27.526332-27.526331h133.026881c15.144599 0 27.526332 12.279404 27.526331 27.526331 0 15.246927-12.279404 27.526332-27.526331 27.526332zM732.619966 72.550814h-85.955831c-36.326571 0-65.797142 29.572899-65.797142 65.899471v536.712301c0 8.902568 4.502448 16.474868 11.051464 21.488958l58.838813 89.434995c9.618867 14.632957 24.149495 22.921555 39.805736 22.921555 15.656241 0 30.186869-8.390926 39.703408-22.921555l58.838812-89.434995c6.549016-5.01409 11.051464-12.58639 11.051464-21.488958V140.087539c0-37.247527-30.391526-67.536724-67.536724-67.536725z m-96.802638 65.899471c0-6.037374 4.911762-10.846807 10.846807-10.846807h85.955831c6.856001 0 12.484061 5.62806 12.484061 12.484061v507.548716H635.817328V138.450285z m54.64335 607.932847l-28.754272-43.796543h57.508544l-28.754272 43.796543z" fill="#4E5A6C" p-id="66034"></path></svg>