<?xml version="1.0" standalone="no"?><!DOCTYPE svg PUBLIC "-//W3C//DTD SVG 1.1//EN" "http://www.w3.org/Graphics/SVG/1.1/DTD/svg11.dtd"><svg t="1534657402276" class="icon" style="" viewBox="0 0 1024 1024" version="1.1" xmlns="http://www.w3.org/2000/svg" p-id="4013" xmlns:xlink="http://www.w3.org/1999/xlink" width="200" height="200"><defs><style type="text/css"></style></defs><path d="M420.032586 476.553767c-8.421793-9.642595-7.446584-24.279938 2.175544-32.681264 9.621106-8.440213 24.249239-7.433281 32.672055 2.168381l62.998697 71.823672 176.165904-157.432274c9.521845-8.521054 24.154071-7.706504 32.670008 1.819435 8.52003 9.522868 7.704457 24.162258-1.816365 32.678195L531.920662 567.386337c-9.883072 9.138106-24.732238 8.52003-33.470232-1.469464l-78.417844-89.363106zM287.427717 717.157133h449.140473v30.975417H287.427717v-30.975417z m0 81.312771h449.140473v30.975417H287.427717v-30.975417z" fill="#C4603E" p-id="4014"></path><path d="M536.645257 65.345133c-6.309693-6.310717-15.022105-10.220762-24.64321-10.220762-9.630315-0.002047-18.344774 3.909022-24.648328 10.222809-6.303554 6.269785-10.202342 14.983219-10.202342 24.623768 0 9.642595 3.898789 18.353983 10.202342 24.625814a34.751409 34.751409 0 0 0 22.852429 10.183923h3.584634a34.762665 34.762665 0 0 0 22.854475-10.183923 34.644985 34.644985 0 0 0 10.203366-24.625814 34.638846 34.638846 0 0 0-10.203366-24.623768v-0.002047z m-24.64321-48.939521c22.45027 0 42.77923 1.355878 57.489227 16.068945 14.712044 14.712044 23.821497 35.042027 23.821497 57.497414h92.927274v116.160371H337.759955V89.970948h92.927274c0-22.457433 9.103314-42.784347 23.816381-57.497414 14.718184-14.713067 35.044074-16.067922 57.498437-16.067922zM205.899029 124.780685h100.88551v46.464149H205.899029c-8.496494 0-16.235744 3.484351-21.86187 9.09922-5.62101 5.613847-9.112523 13.359236-9.112524 21.87722v727.934572c0 16.958196 13.988568 30.97644 30.975417 30.97644H818.100971c16.980709 0 30.97337-14.018244 30.97337-30.97644V202.221274c0-8.479098-3.491514-16.224487-9.119686-21.87722-5.62408-5.613847-13.365376-9.099221-21.85266-9.09922h-100.88551v-46.464149h100.88551c21.315426 0 40.686573 8.710365 54.706863 22.728609 14.02643 14.01722 22.732702 33.376088 22.732702 54.71198v727.934572c0 42.590942-34.815877 77.439565-77.439565 77.439565H205.899029c-42.630851 0-77.439565-34.808714-77.439565-77.439565V202.221274c0-21.335892 8.703202-40.69476 22.728608-54.71198 14.02336-14.01722 33.391438-22.728609 54.710957-22.728609z m306.138833 244.3241c-77.758836-79.492313-201.228669-18.121693-201.228668 83.20793 0 87.315473 128.496303 186.125723 194.780829 216.948667 3.928465 1.818411 8.588592 1.97293 12.813814 0 67.357973-31.364272 197.579566-131.106751 194.717385-220.899644-11.801767 10.649526-23.804101 21.064716-35.959932 31.327433-7.824184 21.333845-23.619906 43.789231-43.202878 65.165032-36.413255 39.726714-85.265795 74.845489-121.957389 93.238358-36.698757-18.393892-85.550274-53.511644-121.962505-93.238358-28.197146-30.780989-48.563969-63.850086-48.563969-92.541488 0-77.05071 99.739409-127.192613 158.426926-50.334284 6.217596 8.130151 18.269049 7.821114 24.301427-0.156566 27.876852-36.743782 71.195363-48.322469 110.01543-28.147004a1265.556062 1265.556062 0 0 0 23.84401-21.760563c-46.995243-30.360411-105.469912-24.008762-146.02448 17.190487z" fill="#C4603E" p-id="4015"></path></svg>