<?xml version="1.0" standalone="no"?><!DOCTYPE svg PUBLIC "-//W3C//DTD SVG 1.1//EN" "http://www.w3.org/Graphics/SVG/1.1/DTD/svg11.dtd"><svg t="1534657884798" class="icon" style="" viewBox="0 0 1024 1024" version="1.1" xmlns="http://www.w3.org/2000/svg" p-id="2474" xmlns:xlink="http://www.w3.org/1999/xlink" width="200" height="200"><defs><style type="text/css"></style></defs><path d="M565.2 394.2H167.6c-0.6 0-1.1-0.5-1.1-1.1v-9.4c0-0.6 0.5-1.1 1.1-1.1h397.7c0.6 0 1.1 0.5 1.1 1.1v9.4c-0.1 0.6-0.6 1.1-1.2 1.1zM371.1 508.5H167.6c-0.6 0-1.1-0.5-1.1-1.1V498c0-0.6 0.5-1.1 1.1-1.1h203.5c0.6 0 1.1 0.5 1.1 1.1v9.4c0 0.6-0.5 1.1-1.1 1.1zM371.1 622.8H167.6c-0.6 0-1.1-0.5-1.1-1.1v-9.4c0-0.6 0.5-1.1 1.1-1.1h203.5c0.6 0 1.1 0.5 1.1 1.1v9.4c0 0.6-0.5 1.1-1.1 1.1zM371.1 737H167.6c-0.6 0-1.1-0.5-1.1-1.1v-9.4c0-0.6 0.5-1.1 1.1-1.1h203.5c0.6 0 1.1 0.5 1.1 1.1v9.4c0 0.6-0.5 1.1-1.1 1.1zM565.2 200H327.4c-0.6 0-1.1-0.5-1.1-1.1v-9.4c0-0.6 0.5-1.1 1.1-1.1h237.8c0.6 0 1.1 0.5 1.1 1.1v9.4c0 0.6-0.5 1.1-1.1 1.1zM565.2 261.4H327.4c-0.6 0-1.1-0.5-1.1-1.1v-9.4c0-0.6 0.5-1.1 1.1-1.1h237.8c0.6 0 1.1 0.5 1.1 1.1v9.4c0 0.6-0.5 1.1-1.1 1.1z" p-id="2475" fill="#d4237a"></path><path d="M348.9 893c0-6.9-5.6-12.5-12.5-12.5H127.9c-18.1 0-32.9-13.7-32.9-30.5V119.6c0-16.8 14.7-30.5 32.9-30.5h485.2c18.1 0 32.9 13.7 32.9 30.5v296.2c0 7.5 6.1 13.5 13.5 13.5 7.5 0 13.5-6.1 13.5-13.5V119.6C673 89 646.1 64 613.1 64H127.9C94.9 64 68 89 68 119.6V850c0 30.6 26.9 55.6 59.9 55.6h208.4c6.9-0.1 12.6-5.7 12.6-12.6z" p-id="2476" fill="#d4237a"></path><path d="M283.2 284.6H171.1c-2.6 0-4.8-2.1-4.8-4.8v-112c0-2.6 2.1-4.8 4.8-4.8h112.1c2.6 0 4.8 2.1 4.8 4.8v112.1c0 2.6-2.2 4.7-4.8 4.7z" p-id="2477" fill="#d4237a"></path><path d="M917.2 746.6H392c-8.4 0-15.3 6.8-15.3 15.3 0 8.4 6.8 15.3 15.3 15.3h525.2c8.4 0 15.3-6.8 15.3-15.3 0-8.4-6.9-15.3-15.3-15.3zM783.1 891.7c0 18.6-15 33.6-33.6 33.6H559.2c-18.6 0-33.6-15-33.6-33.6v-97.5h-101v131.2c0 18.6 15 33.6 33.6 33.6h392.1c18.6 0 33.6-15 33.6-33.6V794.2H783.1v97.5z m-291.2 8.4c0 4.6-3.8 8.4-8.4 8.4h-16.8c-4.6 0-8.4-3.8-8.4-8.4v-16.8c0-2.2 0.9-4.4 2.5-5.9 1.6-1.6 3.7-2.5 6-2.5h16.8c2.2 0 4.4 0.9 5.9 2.5 1.6 1.6 2.5 3.7 2.5 5.9v16.8z m0-67.2c0 4.6-3.8 8.4-8.4 8.4h-16.8c-2.2 0-4.4-0.9-5.9-2.5-1.6-1.6-2.5-3.7-2.5-5.9v-16.8c0-2.2 0.9-4.4 2.4-6 1.6-1.6 3.7-2.5 5.9-2.5h16.8c2.2 0 4.4 0.9 5.9 2.5 1.6 1.6 2.5 3.7 2.5 5.9l0.1 16.9z m324.8-16.8c0-2.2 0.9-4.4 2.5-6 1.6-1.6 3.7-2.5 6-2.5H842c4.6 0 8.4 3.8 8.4 8.4v16.8c0 4.6-3.8 8.4-8.4 8.4h-16.8c-4.6 0-8.4-3.8-8.4-8.4v-16.7z m0 67.2c0-4.6 3.8-8.4 8.4-8.4h16.8c4.6 0 8.4 3.8 8.4 8.4v16.8c0 4.6-3.8 8.4-8.4 8.4h-16.8c-4.6 0-8.4-3.8-8.4-8.4v-16.8zM525.6 723.8h257.5v0.4H884V521.8c0-18.6-15-33.6-33.6-33.6H458.3c-18.6 0-33.6 15-33.6 33.6v202.5h100.9v-0.5zM816.7 547c0-4.6 3.8-8.4 8.4-8.4h16.8c4.6 0 8.4 3.8 8.4 8.4v16.8c0 4.6-3.8 8.4-8.4 8.4h-16.8c-4.6 0-8.4-3.8-8.4-8.4V547z m0 67.3c0-2.2 0.9-4.4 2.5-5.9 1.6-1.6 3.7-2.5 5.9-2.5h16.8c2.2 0 4.4 0.9 5.9 2.5 1.6 1.6 2.5 3.7 2.5 5.9v16.8c0 4.6-3.8 8.4-8.4 8.4h-16.8c-4.6 0-8.4-3.8-8.4-8.4v-16.8z m0 67.3c0-4.6 3.8-8.4 8.4-8.4h16.8c4.6 0 8.4 3.8 8.4 8.4v16.8c0 4.6-3.8 8.4-8.4 8.4h-16.8c-4.6 0-8.4-3.8-8.4-8.4v-16.8zM525.6 555.4c0-18.6 15.1-33.6 33.6-33.6h190.3c18.6 0 33.6 15.1 33.6 33.6v138H525.6v-138z m-33.7 142.9c0 4.6-3.8 8.4-8.4 8.4h-16.8c-4.6 0-8.4-3.8-8.4-8.4v-16.8c0-4.6 3.8-8.4 8.4-8.4h16.8c4.6 0 8.4 3.8 8.4 8.4v16.8z m0-67.2c0 4.6-3.8 8.4-8.4 8.4h-16.8c-4.6 0-8.4-3.8-8.4-8.4v-16.8c0-2.2 0.9-4.4 2.5-6s3.7-2.5 6-2.5h16.8c2.2 0 4.4 0.9 5.9 2.5 1.6 1.6 2.5 3.7 2.5 5.9v16.9z m0-67.3c0 4.6-3.8 8.4-8.4 8.4h-16.8c-4.6 0-8.4-3.8-8.4-8.4V547c0-4.6 3.8-8.4 8.4-8.4h16.8c4.6 0 8.4 3.8 8.4 8.4v16.8z m0 0" p-id="2478" fill="#d4237a"></path></svg>