<?xml version="1.0" standalone="no"?><!DOCTYPE svg PUBLIC "-//W3C//DTD SVG 1.1//EN" "http://www.w3.org/Graphics/SVG/1.1/DTD/svg11.dtd"><svg t="1534923407502" class="icon" style="" viewBox="0 0 1024 1024" version="1.1" xmlns="http://www.w3.org/2000/svg" p-id="3826" xmlns:xlink="http://www.w3.org/1999/xlink" width="128" height="128"><defs><style type="text/css"></style></defs><path d="M512 1024c282.76736 0 512-229.23264 512-512S794.76736 0 512 0 0 229.23264 0 512s229.23264 512 512 512z m111.88224-595.88608l-220.65152-218.112s43.9296-19.82464 110.32576-19.82464c66.39616 0 110.32576 17.28512 110.32576 17.28512v220.65152z m27.40224 102.74816l-1.78176-310.272s45.056 17.08032 92.01664 64.02048c46.94016 46.96064 65.80224 90.23488 65.80224 90.23488L651.264 530.8416z m-53.248 92.0576l218.112-220.65152s19.80416 43.9296 19.80416 110.32576c0 66.39616-17.28512 110.32576-17.28512 110.32576H598.016z m-102.76864 27.40224l310.272-1.78176s-17.08032 45.056-64.02048 92.01664c-46.94016 46.94016-90.23488 65.80224-90.23488 65.80224l-156.01664-156.03712z m-92.03712-53.248l220.65152 218.112s-43.9296 19.80416-110.32576 19.80416c-66.39616 0-110.32576-17.28512-110.32576-17.28512V597.05344z m-27.4432-102.76864l1.80224 310.272s-45.056-17.08032-92.01664-64.02048c-46.94016-46.94016-65.80224-90.23488-65.80224-90.23488l156.03712-156.01664z m53.28896-92.03712l-218.112 220.65152s-19.82464-43.9296-19.82464-110.32576c0-66.39616 17.28512-110.32576 17.28512-110.32576h220.65152z m102.74816-27.4432l-310.272 1.80224s17.08032-45.056 64.02048-92.01664c46.96064-46.94016 90.23488-65.80224 90.23488-65.80224l156.01664 156.03712z" p-id="3827" fill="#ffffff"></path></svg>