<?xml version="1.0" standalone="no"?><!DOCTYPE svg PUBLIC "-//W3C//DTD SVG 1.1//EN" "http://www.w3.org/Graphics/SVG/1.1/DTD/svg11.dtd"><svg t="1534931143966" class="icon" style="" viewBox="0 0 1024 1024" version="1.1" xmlns="http://www.w3.org/2000/svg" p-id="86314" xmlns:xlink="http://www.w3.org/1999/xlink" width="128" height="128"><defs><style type="text/css"></style></defs><path d="M106.532315 748.149395L358.26871 585.876568a172.145685 172.145685 0 0 1-16.440438-88.822978L49.736774 434.279894a466.801589 466.801589 0 0 0 56.795541 313.869501zM671.923316 434.279894l-0.426719 17.294898a169.888272 169.888272 0 0 1 10.462283 75.157747l292.303322 62.987567a466.793402 466.793402 0 0 0-56.79554-313.868477l-245.543346 158.428265zM275.850605 106.532315L438.337303 358.267687a173.585477 173.585477 0 0 1 64.481594-16.654309l26.689872-12.384051 60.425208-279.920295a467.228307 467.228307 0 0 0-314.083372 57.223283zM497.05359 682.172751l-62.987567 292.517193a467.219097 467.219097 0 0 0 314.082348-57.222259L585.876568 665.73129a172.158988 172.158988 0 0 1-88.822978 16.441461z" fill="#FFDBC1" p-id="86315"></path><path d="M953.33866 252.577552l0.854461-0.426718-23.273053-35.870976-0.85446 0.426719A508.772492 508.772492 0 0 0 640.750339 16.642029l0.213871-1.067309-41.84913-8.967232-0.213871 0.853437a511.670495 511.670495 0 0 0-346.323657 63.200415l-0.426718-0.854461L216.279858 93.080955l0.426719 0.854461A509.213537 509.213537 0 0 0 17.068747 383.463532l-1.49505-0.426719-8.967232 41.84913 1.49505 0.213871A510.300288 510.300288 0 0 0 70.66134 771.422448l-0.854461 0.426718 23.273053 35.870976 0.85446-0.426719a508.767376 508.767376 0 0 0 289.314245 200.064548l-0.213871 1.067309 41.849131 8.967232 0.213871-0.854461a511.677659 511.677659 0 0 0 346.323656-63.200414l0.427742 0.854461 35.870976-23.273053-0.426719-0.854461a509.213537 509.213537 0 0 0 199.63783-289.528116l1.494027 0.426719 8.968255-41.84913-1.49505-0.213871a510.305405 510.305405 0 0 0-62.559825-346.322634zM631.569236 58.277288a466.98169 466.98169 0 0 1 262.625396 181.702342L673.204495 382.609071l2.77623-121.063263-98.004081 45.264926 53.592592-248.533446zM603.804892 601.533153c-42.706661 44.098357-110.709451 51.662637-162.061002 18.027585-51.353598-33.635051-71.591525-98.995665-48.229445-155.7646 23.360034-56.768935 83.739193-88.954985 143.893225-76.703962l49.108464-28.611642 42.48972-24.980951-5.764284 49.108465-6.619768 56.367798c35.267225 50.248428 29.888727 118.458949-12.81691 162.557307zM589.932953 49.310056l-60.425207 279.920294-26.689873 12.384051a173.580361 173.580361 0 0 0-64.481593 16.654309L275.850605 106.532315a467.221144 467.221144 0 0 1 314.082348-57.222259z m-349.9523 80.495312L402.252457 381.327892a172.038238 172.038238 0 0 0-33.094746 36.938284 175.84903 175.84903 0 0 0-18.149359 37.152154L58.70503 392.430764a466.955084 466.955084 0 0 1 181.275623-262.625396zM49.736774 434.279894L341.827249 497.05359a172.168198 172.168198 0 0 0 16.440438 88.822978L106.532315 748.149395A466.801589 466.801589 0 0 1 49.736774 434.279894z m342.69399 531.441795A466.979644 466.979644 0 0 1 129.805368 784.019347L381.114021 621.747543a167.668721 167.668721 0 0 0 37.152155 33.094746 175.697581 175.697581 0 0 0 37.152154 18.148335l-62.987566 292.731065z m41.636283 8.968255l62.987566-292.517193a172.171268 172.171268 0 0 0 88.822978-16.440438l162.272827 251.735372a467.224214 467.224214 0 0 1-314.083371 57.222259z m349.9523-80.496335L621.747543 642.885979a167.668721 167.668721 0 0 0 33.094746-37.152155 176.72498 176.72498 0 0 0 18.362206-37.152154l292.090475 62.987566a466.949968 466.949968 0 0 1-181.275623 262.624373zM974.263226 589.720106l-292.303323-62.987567a169.888272 169.888272 0 0 0-10.462282-75.157747l0.426718-17.294898 245.544369-158.429289a466.807728 466.807728 0 0 1 56.794518 313.869501z" fill="#FF8833" p-id="86316"></path><path d="M512 469.296409c-23.584138 0-42.703591 19.119453-42.703591 42.703591s19.119453 42.703591 42.703591 42.703591c23.555485-0.070608 42.632983-19.148106 42.703591-42.703591 0-23.584138-19.119453-42.703591-42.703591-42.703591z" fill="#FF8833" p-id="86317"></path></svg>