<?xml version="1.0" standalone="no"?><!DOCTYPE svg PUBLIC "-//W3C//DTD SVG 1.1//EN" "http://www.w3.org/Graphics/SVG/1.1/DTD/svg11.dtd"><svg t="1535018363125" class="icon" style="" viewBox="0 0 1024 1024" version="1.1" xmlns="http://www.w3.org/2000/svg" p-id="19793" xmlns:xlink="http://www.w3.org/1999/xlink" width="128" height="128"><defs><style type="text/css"></style></defs><path d="M421.6 348a225.6 224.8 90 1 0 449.6 0 225.6 224.8 90 1 0-449.6 0Z" fill="#FF911E" p-id="19794"></path><path d="M268.8 922.4c0-215.2 168.8-389.6 377.6-389.6S1024 708 1024 922.4" fill="#FF911E" p-id="19795"></path><path d="M830.4 649.6c-33.6-54.4-79.2-96-131.2-119.2 23.2-18.4 42.4-43.2 56.8-72 16-33.6 24.8-71.2 24.8-109.6 0-120.8-82.4-218.4-184-218.4-14.4 0-26.4 13.6-26.4 29.6s12 29.6 26.4 29.6c72.8 0 132 71.2 132 159.2 0 88-59.2 159.2-132 159.2-14.4 0-26.4 13.6-26.4 29.6s12 29.6 26.4 29.6c130.4 0 236.8 128 236.8 285.6 0 16 12 29.6 26.4 29.6 14.4 0 26.4-13.6 26.4-29.6-0.8-74.4-20-144-56-203.2zM560 599.2c-27.2-21.6-57.6-39.2-88.8-51.2 66.4-45.6 107.2-127.2 107.2-216C578.4 192.8 478.4 80 355.2 80 232 80 132 192.8 132 332c0 47.2 12 93.6 33.6 133.6 19.2 33.6 44 62.4 74.4 82.4-32 12-62.4 29.6-90.4 52-30.4 24-56.8 53.6-79.2 87.2C24.8 757.6 0 840.8 0 928c0 16 12 29.6 26.4 29.6 14.4 0 26.4-13.6 26.4-29.6 0-91.2 31.2-176.8 88.8-241.6 56.8-64.8 132-100 212-100 2.4 0 5.6 0 8-0.8l2.4-0.8c77.6 1.6 151.2 36.8 206.4 100 56.8 64.8 88.8 150.4 88.8 241.6 0 16 12 29.6 26.4 29.6 14.4 0 26.4-13.6 26.4-29.6 0-87.2-24.8-170.4-71.2-240-24-33.6-50.4-62.4-80.8-87.2zM355.2 138.4c94.4 0 171.2 86.4 171.2 193.6 0 106.4-76.8 193.6-171.2 193.6C260.8 525.6 184 438.4 184 332c0-106.4 76.8-193.6 171.2-193.6z m0 0" fill="" p-id="19796"></path></svg>