<?xml version="1.0" standalone="no"?><!DOCTYPE svg PUBLIC "-//W3C//DTD SVG 1.1//EN" "http://www.w3.org/Graphics/SVG/1.1/DTD/svg11.dtd"><svg t="1534657992469" class="icon" style="" viewBox="0 0 1024 1024" version="1.1" xmlns="http://www.w3.org/2000/svg" p-id="5954" xmlns:xlink="http://www.w3.org/1999/xlink" width="200" height="200"><defs><style type="text/css"></style></defs><path d="M799.424 232.96v0.256a47.616 47.616 0 0 0-25.344-37.376l1.152 0.64a44.672 44.672 0 0 0-26.624-8.512h-0.64l-67.264-2.56-41.088-54.592 0.32 0.256a50.304 50.304 0 0 0-19.328-16.512 52.416 52.416 0 0 0-45.056-1.28 11.136 11.136 0 0 0-4.352 2.176L512 143.616l-61.696-29.44a53.12 53.12 0 0 0-46.592 0.384h-0.256a52.608 52.608 0 0 0-19.072 16.256h-0.32l-40.448 54.528-68.096 2.56c-28.544 0.896-45.76 15.872-51.264 44.8-0.32 0-0.32 0 0 0.256l-10.432 67.456-59.2 34.048 0.256-0.256a50.688 50.688 0 0 0-27.52 46.912 53.12 53.12 0 0 0 2.752 16.256v0.256l21.76 64.832-31.616 49.6h29.44l26.048-41.344a15.68 15.68 0 0 0 1.856-5.184 11.136 11.136 0 0 0-0.64-5.568L153.408 389.76v0.256a31.68 31.68 0 0 1-1.536-8.896c0-11.456 4.928-19.968 15.04-25.472l64.128-36.736a12.48 12.48 0 0 0 4.032-3.712c0.832-1.664 1.792-3.52 2.112-5.248l11.328-73.344v0.64c2.752-16 12.288-24.192 27.968-24.896l73.856-2.752a12.032 12.032 0 0 0 5.248-1.152 12.16 12.16 0 0 0 3.968-3.648l44.16-59.072v-0.256a33.728 33.728 0 0 1 10.752-8.896 28.992 28.992 0 0 1 25.792 0l-0.32-0.32 66.88 31.936c1.536 0.96 3.392 1.152 5.184 1.152s3.712-0.256 5.248-1.216l65.92-31.296c0.32-0.256 0.64-0.256 0.896-0.256a28.992 28.992 0 0 1 35.904 8.512v0.384l44.544 59.328a12.352 12.352 0 0 0 4.288 3.712 9.92 9.92 0 0 0 5.12 1.152l73.728 2.752h0.256c4.608 0 9.28 1.536 13.184 4.288 0.32 0.256 0.96 0.256 1.216 0.704a25.344 25.344 0 0 1 12.864 19.264v0.256l12.032 73.28a17.088 17.088 0 0 0 1.856 4.992 12.288 12.288 0 0 0 3.968 3.712l64.192 36.736h0.256c13.504 7.744 17.792 19.008 13.184 34.368V389.76l-23.552 70.208a11.776 11.776 0 0 0-0.384 5.568c0 1.792 0.64 3.712 1.536 5.184l26.048 41.344h29.184l-31.296-49.6 21.824-64.832v-0.256c8.896-27.968 0.576-49.152-24.576-63.168v0.256l-58.88-33.984-11.136-67.52zM136.192 533.248l13.504-21.184h-29.44l-4.928 8a54.4 54.4 0 0 0-8.256 28.864c0 15.616 5.504 28.608 16.896 38.976l49.088 46.976-5.824 67.776v0.256a48.768 48.768 0 0 0 16 42.752c0.32 0 0.32 0 0.576 0.256a46.144 46.144 0 0 0 22.4 13.184h-0.32l65.664 18.624 26.048 62.976a59.712 59.712 0 0 0 20.608 23.936 50.176 50.176 0 0 0 39.872 7.616l67.2-13.824 52.8 43.264v0.384c22.08 17.152 44.224 17.472 65.984 1.152 0.896-0.256 1.472-0.896 2.432-1.472l52.16-43.264 66.88 13.824a52.48 52.48 0 0 0 40.512-7.616c0.256-0.384 0.64-0.384 0.896-0.64 3.392-2.816 6.72-5.824 10.112-9.472l0.64-0.64a54.144 54.144 0 0 0 8.256-13.184l26.752-62.976 65.344-18.624c0.256-0.256 0.256-0.256 0.576-0.256a56 56 0 0 0 15.936-8l-0.896 0.512a58.112 58.112 0 0 0 16.896-18.624l0.256-0.256a54.016 54.016 0 0 0 5.888-29.568l-5.376-68.096 49.152-46.912a52.48 52.48 0 0 0 16.512-38.72v-0.64a55.04 55.04 0 0 0-8.576-28.48l-4.864-8h-29.184l13.248 21.184v-0.32a33.216 33.216 0 0 1 4.864 15.936v0.256a29.312 29.312 0 0 1-8.896 20.864l-53.376 51.008a10.048 10.048 0 0 0-3.136 4.544 7.232 7.232 0 0 0-0.896 5.184L832 704.832v0.256a26.176 26.176 0 0 1-3.072 15.68v0.256a45.056 45.056 0 0 1-9.472 10.176c-0.32 0.256-0.32 0.64-0.64 0.896a63.168 63.168 0 0 1-7.616 3.456h-0.384l-70.592 20.48a8.32 8.32 0 0 0-4.608 2.432 11.904 11.904 0 0 0-3.072 4.288l-29.12 68.16c-1.28 2.112-2.752 4.544-4.864 7.296a71.168 71.168 0 0 1-5.888 5.44c-6.976 4.736-14.72 6.272-22.4 4.736l-72.768-15.104a17.152 17.152 0 0 0-5.12 0 12.288 12.288 0 0 0-4.928 2.432l-55.872 46.016c-0.32 0.384-0.896 0.64-1.216 0.896-12.224 9.92-24.576 9.92-36.864 0h-0.192l-56.768-46.848a13.568 13.568 0 0 0-4.928-2.432 20.288 20.288 0 0 0-5.568 0l-73.024 15.104c-7.68 1.472-14.72 0-21.76-4.352l0.576 0.32A40.96 40.96 0 0 1 320 830.272l-28.224-67.264a18.432 18.432 0 0 0-3.136-4.544 9.536 9.536 0 0 0-4.608-2.432l-71.168-20.48h-0.256a24.96 24.96 0 0 1-11.712-6.848c-0.32-0.256-0.32-0.256-0.32-0.512a25.472 25.472 0 0 1-8.896-22.656v-0.384l6.144-73.856a11.008 11.008 0 0 0-0.576-5.568 15.616 15.616 0 0 0-3.072-4.672l-53.632-51.008a28.8 28.8 0 0 1-8.896-21.12c0-5.824 1.472-11.008 4.608-15.936v0.256h-0.064z" fill="#d4237a" p-id="5955"></path><path d="M302.208 318.656a12.16 12.16 0 0 0 8.576 3.264H498.56v31.616c-53.376 0.64-106.176 0.64-158.336 0.384-0.96 0-1.536 0-2.432 0.256-24.256 4.032-35.968 19.584-35.584 46.848V478.72c-1.536 16.64 3.648 28.8 15.68 36.48 9.472 6.976 23.872 10.048 43.776 9.536H498.56v33.92H297.856a11.328 11.328 0 0 0-8.576 3.712 11.328 11.328 0 0 0-3.648 8.704 12.096 12.096 0 0 0 12.288 12.224h434.688a13.248 13.248 0 0 0 8.96-3.328 13.44 13.44 0 0 0 3.328-8.896v-34.432a12.288 12.288 0 0 0-3.328-8.64c-2.432-2.368-5.568-3.648-8.96-3.648s-6.4 1.28-8.576 3.648a11.392 11.392 0 0 0-3.712 8.64v22.08H523.072V524.8h133.44c42.048-3.712 62.592-23.36 61.056-58.624v-60.8c1.28-17.472-2.752-30.656-11.968-38.848-8.32-8.896-21.44-13.504-39.552-13.184H523.072v-31.36h185.6a13.44 13.44 0 0 0 8.896-3.264 14.144 14.144 0 0 0 3.392-8.96 12.16 12.16 0 0 0-12.288-12.352h-185.6v-21.44a12.16 12.16 0 0 0-12.288-12.352 11.136 11.136 0 0 0-8.576 3.712 11.136 11.136 0 0 0-3.648 8.64v21.44H310.784a11.136 11.136 0 0 0-8.576 3.712 10.752 10.752 0 0 0-3.712 8.576 12.8 12.8 0 0 0 3.712 8.96z m390.848 85.76v21.44H523.072v-48.192h143.232a33.792 33.792 0 0 1 22.144 5.824c3.648 4.736 5.184 11.072 4.608 19.968v0.96z m0 46.016v15.936c-0.384 20.544-13.248 31.616-38.656 33.728H523.072v-49.664h169.984zM498.56 378.048v47.808H326.72v-25.088c-0.256-12.544 4.608-19.904 14.72-22.464 51.84 0.384 104 0.384 157.12-0.256z m0 72.384v49.664H361.408c-13.184 0.384-23.04-1.152-29.44-4.8-4.032-3.392-5.504-8.384-5.248-14.784V450.432H498.56zM656.832 616.768a10.944 10.944 0 0 0 0.32 9.472l29.184 64.064a11.136 11.136 0 0 0 6.72 6.528 15.04 15.04 0 0 0 9.472-0.256 12.736 12.736 0 0 0 6.144-16.32l-29.12-64.192a11.456 11.456 0 0 0-7.104-6.464 11.072 11.072 0 0 0-9.216 0.384 9.408 9.408 0 0 0-6.4 6.784zM514.176 624.32v41.472a12.16 12.16 0 0 0 12.288 12.352 13.568 13.568 0 0 0 8.896-3.456 13.632 13.632 0 0 0 3.392-8.896v-41.472a12.288 12.288 0 0 0-3.392-8.512c-2.496-2.496-5.568-3.648-8.896-3.648s-6.464 1.152-8.576 3.648a11.072 11.072 0 0 0-3.712 8.512z" fill="#d4237a" p-id="5956"></path><path d="M414.144 619.136a11.2 11.2 0 0 0-3.648 8.64v59.328c0.64 34.88 18.112 52.992 52.48 54.272h159.552c3.328 0 6.464-1.28 8.896-3.456 2.176-2.368 3.328-5.44 3.328-8.896a11.904 11.904 0 0 0-12.224-12.352H463.232c-18.368-0.896-27.904-11.008-28.224-30.08v-58.88a11.968 11.968 0 0 0-12.288-12.288 11.52 11.52 0 0 0-8.576 3.712zM341.12 612.416a11.712 11.712 0 0 0-9.472 1.536 13.12 13.12 0 0 0-5.568 7.744l-15.616 63.104a10.752 10.752 0 0 0 1.536 9.216 12.992 12.992 0 0 0 7.68 5.632c3.392 0.896 6.4 0.256 9.216-1.536a13.184 13.184 0 0 0 5.504-7.296l15.68-63.232a11.712 11.712 0 0 0-1.6-9.6 12.8 12.8 0 0 0-7.36-5.568z" fill="#d4237a" p-id="5957"></path></svg>