<?xml version="1.0" standalone="no"?><!DOCTYPE svg PUBLIC "-//W3C//DTD SVG 1.1//EN" "http://www.w3.org/Graphics/SVG/1.1/DTD/svg11.dtd"><svg t="1534932430963" class="icon" style="" viewBox="0 0 1223 1024" version="1.1" xmlns="http://www.w3.org/2000/svg" p-id="18490" xmlns:xlink="http://www.w3.org/1999/xlink" width="152.875" height="128"><defs><style type="text/css"></style></defs><path d="M314.553697 528.985782a456.189573 451.336493 90 1 0 902.672986 0 456.189573 451.336493 90 1 0-902.672986 0Z" fill="#FFDBD7" p-id="18491"></path><path d="M969.719574 839.582938c-92.208531 92.208531-218.388626 145.592417-349.421801 145.592417s-252.36019-48.530806-344.56872-140.739336c-14.559242-14.559242-14.559242-38.824645 0-53.383886 14.559242-14.559242 38.824645-14.559242 53.383886 0 77.649289 77.649289 179.563981 116.473934 291.184834 116.473933 228.094787 0 412.511848-184.417062 412.511849-412.511848s-184.417062-412.511848-412.511849-412.511848-412.511848 184.417062-412.511848 412.511848c0 19.412322 0 33.971564 4.85308 53.383886l63.090048-72.796208c14.559242-14.559242 38.824645-19.412322 53.383886-4.853081 14.559242 14.559242 19.412322 38.824645 4.853081 53.383886l-121.327015 131.033176c-9.706161 9.706161-19.412322 14.559242-29.118483 14.559241H168.96128c-9.706161 0-19.412322-4.853081-24.265403-9.706161l-131.033175-121.327014c-14.559242-14.559242-19.412322-38.824645-4.85308-53.383886 14.559242-14.559242 38.824645-19.412322 53.383886-4.853081l63.090047 58.236967c0-14.559242-4.853081-33.971564-4.85308-48.530806 0-131.033175 53.383886-252.36019 145.592417-344.56872 92.208531-92.208531 218.388626-145.592417 349.421801-145.592417s252.36019 53.383886 349.421801 145.592417c92.208531 92.208531 145.592417 213.535545 145.592417 344.56872 4.853081 135.886256-48.530806 257.21327-140.739337 349.421801m-330.009479-548.398104v203.829384h198.976304c19.412322 0 38.824645 19.412322 38.824644 38.824645s-19.412322 43.677725-38.824644 43.677725h-237.800948c-19.412322 0-38.824645-19.412322-38.824645-43.677725v-242.654029c0-19.412322 19.412322-38.824645 38.824645-38.824644s38.824645 19.412322 38.824644 38.824644" fill="#F05B48" p-id="18492"></path></svg>