<?xml version="1.0" standalone="no"?><!DOCTYPE svg PUBLIC "-//W3C//DTD SVG 1.1//EN" "http://www.w3.org/Graphics/SVG/1.1/DTD/svg11.dtd"><svg t="1534931000548" class="icon" style="" viewBox="0 0 1024 1024" version="1.1" xmlns="http://www.w3.org/2000/svg" p-id="83468" xmlns:xlink="http://www.w3.org/1999/xlink" width="128" height="128"><defs><style type="text/css"></style></defs><path d="M760.685714 780.190476v-97.523809H902.095238V97.52381H121.904762v585.142857h273.066667v97.523809H121.904762c-53.638095 0-97.52381-43.885714-97.52381-97.523809V97.52381C24.380952 43.885714 68.266667 0 121.904762 0h780.190476c53.638095 0 97.52381 43.885714 97.52381 97.52381v585.142857c0 53.638095-43.885714 97.52381-97.52381 97.523809h-141.409524z m0 0v-97.523809H902.095238V97.52381H121.904762v585.142857h273.066667v97.523809H121.904762c-53.638095 0-97.52381-43.885714-97.52381-97.523809V97.52381C24.380952 43.885714 68.266667 0 121.904762 0h780.190476c53.638095 0 97.52381 43.885714 97.52381 97.52381v585.142857c0 53.638095-43.885714 97.52381-97.52381 97.523809h-141.409524z" fill="#59BAF0" p-id="83469"></path><path d="M585.142857 877.714286c-146.285714 0-268.190476-121.904762-268.190476-268.190476S438.857143 341.333333 585.142857 341.333333 853.333333 463.238095 853.333333 609.52381 731.428571 877.714286 585.142857 877.714286z m0-97.52381c92.647619 0 170.666667-78.019048 170.666667-170.666666S677.790476 438.857143 585.142857 438.857143 414.47619 516.87619 414.47619 609.52381 492.495238 780.190476 585.142857 780.190476z" fill="#59BAF0" p-id="83470"></path><path d="M585.142857 609.52381m-121.904762 0a121.904762 121.904762 0 1 0 243.809524 0 121.904762 121.904762 0 1 0-243.809524 0Z" fill="#FFB04B" p-id="83471"></path><path d="M711.92381 755.809524c29.257143-29.257143 73.142857-29.257143 102.4 0l121.904761 126.780952c29.257143 29.257143 29.257143 73.142857 0 102.4-29.257143 29.257143-73.142857 29.257143-102.4 0l-121.904761-126.780952c-29.257143-24.380952-29.257143-73.142857 0-102.4z" fill="#59BAF0" p-id="83472"></path><path d="M219.428571 146.285714h585.142858c29.257143 0 48.761905 19.504762 48.761904 48.761905s-19.504762 48.761905-48.761904 48.761905H219.428571c-24.380952 0-48.761905-19.504762-48.761904-48.761905 0-24.380952 24.380952-48.761905 48.761904-48.761905zM219.428571 292.571429h121.904762c29.257143 0 48.761905 19.504762 48.761905 48.761904s-19.504762 48.761905-48.761905 48.761905H219.428571c-24.380952 0-48.761905-19.504762-48.761904-48.761905 0-24.380952 24.380952-48.761905 48.761904-48.761904zM219.428571 438.857143h19.504762c29.257143 0 48.761905 19.504762 48.761905 48.761905s-19.504762 48.761905-48.761905 48.761904H219.428571c-29.257143 0-48.761905-19.504762-48.761904-48.761904 0-24.380952 24.380952-48.761905 48.761904-48.761905z" fill="#C7EBFF" p-id="83473"></path></svg>